<svg width="56" height="56" viewBox="0 0 56 56" fill="none" xmlns="http://www.w3.org/2000/svg">
<rect width="56" height="56" rx="28" fill="#F2F4F7"/>
<path d="M22.3608 20.4545H24.5483V30.767C24.5483 31.6998 24.3636 32.4976 23.9943 33.1605C23.6297 33.8234 23.116 34.33 22.4531 34.6804C21.7902 35.026 21.0137 35.1989 20.1236 35.1989C19.3045 35.1989 18.5682 35.0497 17.9148 34.7514C17.2661 34.4531 16.7524 34.0199 16.3736 33.4517C15.9995 32.8788 15.8125 32.1828 15.8125 31.3636H17.9929C17.9929 31.7661 18.0852 32.1141 18.2699 32.4077C18.4593 32.7012 18.7173 32.9309 19.044 33.0966C19.3755 33.2576 19.7543 33.3381 20.1804 33.3381C20.6444 33.3381 21.0374 33.241 21.3594 33.0469C21.6861 32.848 21.9347 32.5568 22.1051 32.1733C22.2756 31.7898 22.3608 31.321 22.3608 30.767V20.4545ZM37.0962 20.4545H39.2979V30.0213C39.2979 31.0393 39.0588 31.9413 38.5806 32.7273C38.1024 33.5085 37.43 34.1241 36.5636 34.5739C35.6971 35.0189 34.6815 35.2415 33.5167 35.2415C32.3567 35.2415 31.3434 35.0189 30.4769 34.5739C29.6104 34.1241 28.9381 33.5085 28.4599 32.7273C27.9817 31.9413 27.7425 31.0393 27.7425 30.0213V20.4545H29.9371V29.8438C29.9371 30.5019 30.0816 31.0866 30.3704 31.598C30.6639 32.1094 31.0782 32.5118 31.6133 32.8054C32.1483 33.0942 32.7828 33.2386 33.5167 33.2386C34.2553 33.2386 34.8922 33.0942 35.4272 32.8054C35.967 32.5118 36.3789 32.1094 36.663 31.598C36.9518 31.0866 37.0962 30.5019 37.0962 29.8438V20.4545Z" fill="#475467"/>
</svg>
