<svg width="16" height="12" viewBox="0 0 16 12" fill="none" xmlns="http://www.w3.org/2000/svg">
<path d="M1.33331 2.66666L6.77659 6.47695C7.21737 6.7855 7.43776 6.93977 7.67749 6.99953C7.88924 7.05231 8.11072 7.05231 8.32247 6.99953C8.5622 6.93977 8.78259 6.7855 9.22337 6.47695L14.6666 2.66666M4.53331 11.3333H11.4666C12.5868 11.3333 13.1468 11.3333 13.5746 11.1153C13.951 10.9236 14.2569 10.6176 14.4487 10.2413C14.6666 9.81348 14.6666 9.25343 14.6666 8.13332V3.86666C14.6666 2.74655 14.6666 2.1865 14.4487 1.75868C14.2569 1.38235 13.951 1.07639 13.5746 0.884643C13.1468 0.666656 12.5868 0.666656 11.4666 0.666656H4.53331C3.41321 0.666656 2.85316 0.666656 2.42533 0.884643C2.04901 1.07639 1.74305 1.38235 1.5513 1.75868C1.33331 2.1865 1.33331 2.74655 1.33331 3.86666V8.13332C1.33331 9.25343 1.33331 9.81348 1.5513 10.2413C1.74305 10.6176 2.04901 10.9236 2.42533 11.1153C2.85316 11.3333 3.41321 11.3333 4.53331 11.3333Z" stroke="#667085" stroke-width="1.33333" stroke-linecap="round" stroke-linejoin="round"/>
</svg>
