<svg width="18" height="20" viewBox="0 0 18 20" fill="none" xmlns="http://www.w3.org/2000/svg">
<path d="M6.82924 16.1426L7.31628 17.2379C7.46106 17.564 7.69734 17.841 7.99647 18.0355C8.29559 18.2299 8.6447 18.3334 9.00146 18.3333C9.35822 18.3334 9.70734 18.2299 10.0065 18.0355C10.3056 17.841 10.5419 17.564 10.6866 17.2379L11.1737 16.1426C11.3471 15.7539 11.6387 15.4298 12.007 15.2166C12.3777 15.0028 12.8065 14.9118 13.232 14.9564L14.4237 15.0833C14.7784 15.1208 15.1364 15.0546 15.4543 14.8927C15.7721 14.7309 16.0362 14.4802 16.2144 14.1713C16.3929 13.8625 16.4779 13.5085 16.4592 13.1524C16.4405 12.7962 16.3188 12.4531 16.1089 12.1648L15.4033 11.1953C15.1521 10.8476 15.0178 10.429 15.02 9.99996C15.0199 9.57212 15.1554 9.15525 15.407 8.80922L16.1126 7.83977C16.3225 7.55142 16.4442 7.20835 16.4629 6.85219C16.4816 6.49602 16.3966 6.14208 16.2181 5.83329C16.0399 5.52432 15.7758 5.2737 15.458 5.11182C15.1401 4.94993 14.7821 4.88373 14.4274 4.92126L13.2357 5.04811C12.8102 5.0928 12.3814 5.00173 12.0107 4.78792C11.6417 4.5735 11.35 4.24776 11.1774 3.85737L10.6866 2.762C10.5419 2.43594 10.3056 2.15889 10.0065 1.96446C9.70734 1.77003 9.35822 1.66657 9.00146 1.66663C8.6447 1.66657 8.29559 1.77003 7.99647 1.96446C7.69734 2.15889 7.46106 2.43594 7.31628 2.762L6.82924 3.85737C6.65668 4.24776 6.36497 4.5735 5.99591 4.78792C5.62525 5.00173 5.19647 5.0928 4.77091 5.04811L3.57554 4.92126C3.22081 4.88373 2.86282 4.94993 2.54497 5.11182C2.22711 5.2737 1.96305 5.52432 1.7848 5.83329C1.60632 6.14208 1.52128 6.49602 1.54002 6.85219C1.55876 7.20835 1.68046 7.55142 1.89035 7.83977L2.59591 8.80922C2.84753 9.15525 2.98302 9.57212 2.98295 9.99996C2.98302 10.4278 2.84753 10.8447 2.59591 11.1907L1.89035 12.1601C1.68046 12.4485 1.55876 12.7916 1.54002 13.1477C1.52128 13.5039 1.60632 13.8578 1.7848 14.1666C1.96323 14.4754 2.22732 14.7259 2.54513 14.8878C2.86294 15.0496 3.22084 15.1159 3.57554 15.0787L4.76721 14.9518C5.19276 14.9071 5.62155 14.9982 5.99221 15.212C6.36265 15.4258 6.65571 15.7516 6.82924 16.1426Z" stroke="#344054" stroke-width="1.66667" stroke-linecap="round" stroke-linejoin="round"/>
<path d="M8.99997 12.5C10.3807 12.5 11.5 11.3807 11.5 9.99996C11.5 8.61925 10.3807 7.49996 8.99997 7.49996C7.61926 7.49996 6.49998 8.61925 6.49998 9.99996C6.49998 11.3807 7.61926 12.5 8.99997 12.5Z" stroke="#344054" stroke-width="1.66667" stroke-linecap="round" stroke-linejoin="round"/>
</svg>
